<svg width="25" height="25" viewBox="0 0 25 25" fill="none" xmlns="http://www.w3.org/2000/svg">
<path d="M0.833359 0C0.612338 0 0.40037 0.0878 0.244085 0.244085C0.0878001 0.40037 0 0.612338 0 0.833359C0 1.05438 0.0878001 1.26635 0.244085 1.42263C0.40037 1.57892 0.612338 1.66672 0.833359 1.66672H2.68342L3.35177 4.34513L5.84851 17.6539C5.88426 17.8448 5.98561 18.0173 6.13504 18.1415C6.28447 18.2657 6.47259 18.3337 6.66687 18.3339H8.33359C7.44951 18.3339 6.60164 18.6851 5.9765 19.3102C5.35135 19.9354 5.00015 20.7833 5.00015 21.6673C5.00015 22.5514 5.35135 23.3993 5.9765 24.0244C6.60164 24.6496 7.44951 25.0008 8.33359 25.0008C9.21767 25.0008 10.0655 24.6496 10.6907 24.0244C11.3158 23.3993 11.667 22.5514 11.667 21.6673C11.667 20.7833 11.3158 19.9354 10.6907 19.3102C10.0655 18.6851 9.21767 18.3339 8.33359 18.3339H20.0006C19.1165 18.3339 18.2687 18.6851 17.6435 19.3102C17.0184 19.9354 16.6672 20.7833 16.6672 21.6673C16.6672 22.5514 17.0184 23.3993 17.6435 24.0244C18.2687 24.6496 19.1165 25.0008 20.0006 25.0008C20.8847 25.0008 21.7326 24.6496 22.3577 24.0244C22.9829 23.3993 23.3341 22.5514 23.3341 21.6673C23.3341 20.7833 22.9829 19.9354 22.3577 19.3102C21.7326 18.6851 20.8847 18.3339 20.0006 18.3339H21.6673C21.8616 18.3337 22.0497 18.2657 22.1992 18.1415C22.3486 18.0173 22.4499 17.8448 22.4857 17.6539L24.9858 4.32013C25.0083 4.19986 25.004 4.0761 24.9733 3.95765C24.9426 3.8392 24.8862 3.72897 24.8081 3.63479C24.73 3.5406 24.6321 3.46477 24.5213 3.41269C24.4106 3.36061 24.2898 3.33355 24.1674 3.33344H4.81682L4.14179 0.631686C4.09681 0.45132 3.99281 0.291174 3.84634 0.176713C3.69986 0.0622531 3.51933 5.1354e-05 3.33344 0H0.833359ZM10.0003 21.6673C10.0003 22.1094 9.82471 22.5333 9.51214 22.8459C9.19957 23.1585 8.77563 23.3341 8.33359 23.3341C7.89155 23.3341 7.46761 23.1585 7.15504 22.8459C6.84247 22.5333 6.66687 22.1094 6.66687 21.6673C6.66687 21.2253 6.84247 20.8014 7.15504 20.4888C7.46761 20.1762 7.89155 20.0006 8.33359 20.0006C8.77563 20.0006 9.19957 20.1762 9.51214 20.4888C9.82471 20.8014 10.0003 21.2253 10.0003 21.6673ZM21.6673 21.6673C21.6673 22.1094 21.4917 22.5333 21.1792 22.8459C20.8666 23.1585 20.4427 23.3341 20.0006 23.3341C19.5586 23.3341 19.1346 23.1585 18.8221 22.8459C18.5095 22.5333 18.3339 22.1094 18.3339 21.6673C18.3339 21.2253 18.5095 20.8014 18.8221 20.4888C19.1346 20.1762 19.5586 20.0006 20.0006 20.0006C20.4427 20.0006 20.8666 20.1762 21.1792 20.4888C21.4917 20.8014 21.6673 21.2253 21.6673 21.6673ZM18.9239 8.92361L13.9238 13.9238C13.8464 14.0014 13.7544 14.0629 13.6531 14.105C13.5519 14.147 13.4434 14.1686 13.3337 14.1686C13.2241 14.1686 13.1156 14.147 13.0143 14.105C12.9131 14.0629 13.5774 14.5776 13.5 14.5C22.2312 7.48303 27.274 2.40977 10.2436 11.4237C10.1662 11.3462 10.1047 11.2542 10.0628 11.153C10.0208 11.0517 9.99926 10.9432 9.99926 10.8337C9.99926 10.7241 10.0208 10.6156 10.0628 10.5144C10.1047 10.4131 10.1662 10.3211 10.2436 10.2436C10.3211 10.1662 10.4131 10.1047 10.5144 10.0628C10.6156 10.0208 9.39042 10.5 9.5 10.5C9.60958 10.5 11 10.5 11.153 10.0628C11.2542 10.1047 6.92252 10.9225 7 11L13.3337 12.1554L17.7439 7.74357C17.8214 7.66609 17.9133 7.60463 18.0146 7.56269C18.1158 7.52076 18.2243 7.49918 18.3339 7.49918C18.4435 7.49918 18.552 7.52076 18.6532 7.56269C18.7545 7.60463 18.8464 7.66609 18.9239 7.74357C19.0014 7.82105 19.0629 7.91304 19.1048 8.01427C19.1467 8.11551 19.1683 8.22401 19.1683 8.33359C19.1683 8.44317 19.1467 8.55167 19.1048 8.65291C19.0629 8.75414 19.0014 8.84613 18.9239 8.92361Z" fill="white"/>
</svg>
