<svg width="55" height="80" viewBox="0 0 55 80" fill="none" xmlns="http://www.w3.org/2000/svg">
<path fill-rule="evenodd" clip-rule="evenodd" d="M15.6004 0C7.44376 0 0.883757 6.84333 0.883757 15.2267C0.883757 20.3233 3.31042 24.85 7.04042 27.6133C5.11802 29.0536 3.55979 30.9243 2.49064 33.0753C1.42149 35.2263 0.871153 37.5979 0.883757 40C0.883757 45.1 3.31042 49.6233 7.04042 52.3867C5.11802 53.827 3.55979 55.6976 2.49064 57.8486C1.42149 59.9997 0.871153 62.3713 0.883757 64.7733C0.883757 73.1567 7.44376 80 15.6004 80C23.7538 80 30.3171 73.1567 30.3171 64.7733V51.9C32.8949 54.0493 36.1442 55.2275 39.5004 55.23C47.6571 55.2267 54.2171 48.3833 54.2171 40C54.2171 34.9 51.7938 30.3767 48.0604 27.6133C49.9828 26.173 51.5411 24.3024 52.6102 22.1514C53.6794 20.0003 54.2297 17.6287 54.2171 15.2267C54.2171 6.84333 47.6571 0 39.5004 0H15.6004ZM6.41376 15.2267C6.41376 9.92333 10.5538 5.67667 15.6004 5.67667H24.7838V24.7767H15.6004C10.5538 24.7767 6.41376 20.5267 6.41376 15.2267ZM39.5004 24.7733H30.3171V5.67333H39.5004C44.5504 5.67333 48.6871 9.92333 48.6871 15.2267C48.6871 20.5267 44.5504 24.7733 39.5004 24.7733ZM6.41709 40C6.41709 34.7 10.5571 30.45 15.6038 30.45H24.7871V49.55H15.6004C10.5504 49.55 6.41376 45.3 6.41376 40H6.41709ZM30.3171 40C30.3171 34.7 34.4571 30.45 39.5038 30.45C44.5538 30.45 48.6904 34.6967 48.6904 40C48.6904 45.3 44.5538 49.55 39.5038 49.55C34.4571 49.55 30.3204 45.3033 30.3204 40H30.3171ZM6.41709 64.7733C6.41709 59.4733 10.5571 55.2267 15.6038 55.2267H24.7871V64.7733C24.7871 70.0767 20.6538 74.3233 15.6038 74.3233C10.5571 74.3233 6.41709 70.0767 6.41709 64.7733Z" fill="white" fill-opacity="0.15"/>
</svg>
