<svg width="18" height="14" viewBox="0 0 18 14" fill="none" xmlns="http://www.w3.org/2000/svg">
<path d="M8.7613 3.63156L2.99974 8.37687V13.4984C2.99974 13.631 3.05241 13.7582 3.14618 13.852C3.23995 13.9458 3.36713 13.9984 3.49974 13.9984L7.00161 13.9894C7.13379 13.9887 7.26032 13.9357 7.35355 13.842C7.44678 13.7484 7.49911 13.6216 7.49911 13.4894V10.4984C7.49911 10.3658 7.55179 10.2387 7.64556 10.1449C7.73933 10.0511 7.8665 9.99844 7.99911 9.99844H9.99911C10.1317 9.99844 10.2589 10.0511 10.3527 10.1449C10.4464 10.2387 10.4991 10.3658 10.4991 10.4984V13.4872C10.4989 13.553 10.5117 13.6182 10.5367 13.679C10.5618 13.7399 10.5986 13.7952 10.645 13.8418C10.6915 13.8883 10.7466 13.9253 10.8074 13.9505C10.8682 13.9758 10.9333 13.9888 10.9991 13.9888L14.4997 13.9984C14.6323 13.9984 14.7595 13.9458 14.8533 13.852C14.9471 13.7582 14.9997 13.631 14.9997 13.4984V8.37344L9.23942 3.63156C9.1717 3.57698 9.08734 3.54721 9.00036 3.54721C8.91338 3.54721 8.82902 3.57698 8.7613 3.63156ZM17.8622 6.85687L15.2497 4.70344V0.375C15.2497 0.275544 15.2102 0.180161 15.1399 0.109835C15.0696 0.0395089 14.9742 0 14.8747 0H13.1247C13.0253 0 12.9299 0.0395089 12.8596 0.109835C12.7892 0.180161 12.7497 0.275544 12.7497 0.375V2.64406L9.95192 0.342188C9.68343 0.121243 9.34651 0.00044167 8.9988 0.00044167C8.65108 0.00044167 8.31417 0.121243 8.04567 0.342188L0.135361 6.85687C0.0973883 6.88826 0.0659719 6.92682 0.0429069 6.97035C0.0198419 7.01388 0.00558032 7.06153 0.000937002 7.11058C-0.00370631 7.15962 0.00135966 7.2091 0.0158455 7.25619C0.0303313 7.30328 0.053953 7.34705 0.0853609 7.385L0.882236 8.35375C0.913558 8.39184 0.952085 8.42337 0.99561 8.44655C1.03914 8.46973 1.08681 8.48409 1.13589 8.48882C1.18497 8.49356 1.23451 8.48856 1.28166 8.47412C1.32881 8.45969 1.37265 8.43609 1.41067 8.40469L8.7613 2.35031C8.82902 2.29573 8.91338 2.26596 9.00036 2.26596C9.08734 2.26596 9.1717 2.29573 9.23942 2.35031L16.5904 8.40469C16.6283 8.4361 16.6721 8.45972 16.7192 8.4742C16.7663 8.48869 16.8157 8.49376 16.8648 8.48911C16.9138 8.48447 16.9615 8.47021 17.005 8.44714C17.0485 8.42408 17.0871 8.39266 17.1185 8.35469L17.9154 7.38594C17.9467 7.34776 17.9703 7.30377 17.9846 7.25647C17.9989 7.20918 18.0037 7.15953 17.9988 7.11036C17.9938 7.0612 17.9792 7.01349 17.9558 6.96999C17.9324 6.92649 17.9006 6.88805 17.8622 6.85687Z" fill="white"/>
</svg>
