<svg width="81" height="80" viewBox="0 0 81 80" fill="none" xmlns="http://www.w3.org/2000/svg">
<path d="M0.217285 0H80.2173V80H0.217285V0ZM73.6673 60.925C73.0823 57.265 70.6973 54.205 63.6548 51.3425C61.2073 50.1975 58.4723 49.39 57.6648 47.54C57.3648 46.445 57.3123 45.8475 57.5073 45.195C58.0148 43.0325 60.5548 42.395 62.5598 42.995C63.8623 43.3975 65.0598 44.3875 65.8148 45.99C69.2648 43.7375 69.2648 43.7375 71.6623 42.24C70.7648 40.8475 70.3223 40.235 69.7098 39.65C67.6123 37.2925 64.8148 36.095 60.2698 36.2L57.9123 36.5C55.6598 37.0475 53.5123 38.245 52.2098 39.8475C48.4198 44.145 49.5148 51.645 54.1098 54.7575C58.6548 58.155 65.3073 58.8975 66.1673 62.1025C66.9623 66.01 63.2648 67.26 59.6048 66.8025C56.9098 66.2025 55.4123 64.85 53.7573 62.35L47.6623 65.8525C48.3523 67.455 49.1598 68.145 50.3573 69.55C56.1523 75.3975 70.6573 75.0975 73.2598 66.2025C73.3498 65.9025 74.0548 63.845 73.5073 60.7075L73.6673 60.925ZM43.7198 36.77H36.2323C36.2323 43.2275 36.1923 49.6475 36.1923 56.12C36.1923 60.2225 36.3998 63.9975 35.7373 65.1575C34.6298 67.45 31.8048 67.1625 30.5148 66.76C29.1998 66.11 28.5223 65.21 27.7548 63.9075C27.5323 63.555 27.3773 63.2575 27.3248 63.2575L21.2448 67.0075C22.2598 69.105 23.7448 70.915 25.6598 72.06C28.5123 73.765 32.3398 74.3125 36.3498 73.415C38.9548 72.66 41.2073 71.11 42.3773 68.715C44.0823 65.615 43.7173 61.815 43.7048 57.555C43.7448 50.705 43.7048 43.8575 43.7048 36.955L43.7198 36.77Z" fill="white" fill-opacity="0.15"/>
</svg>
