<svg width="50" height="42" viewBox="0 0 50 42" fill="none" xmlns="http://www.w3.org/2000/svg">
<path d="M4.66239 21.6107L19.6852 21.385L20.0485 21.3796L20.1555 21.0325L24.5832 6.67517L29.4401 20.893L29.5576 21.2368L29.9208 21.2313L44.9436 21.0057L32.9242 30.0171L32.9225 30.0184L28.84 33.0519L28.84 33.0518L28.8366 33.0544L25.0167 35.9438L20.6273 32.9553L16.9566 30.264L16.9566 30.2639L16.9487 30.2583L4.66239 21.6107Z" stroke="white"/>
<mask id="path-2-inside-1" fill="white">
<path d="M46.4748 20.4826L29.9133 20.7314L25.0321 36.5591L19.6777 20.8851L3.11621 21.1338L16.3686 11.198L20.4528 8.16327L24.5589 5.05729L29.2523 8.25273L32.9301 10.9492L46.4748 20.4826Z"/>
</mask>
<path d="M46.4748 20.4826L46.7 35.4809L92.8601 34.7877L55.1083 8.21633L46.4748 20.4826ZM29.9133 20.7314L29.688 5.73304L18.7911 5.8967L15.5794 16.3108L29.9133 20.7314ZM25.0321 36.5591L10.8374 41.4081L25.761 85.0947L39.3659 40.9796L25.0321 36.5591ZM19.6777 20.8851L33.8723 16.0361L30.3494 5.72311L19.4525 5.88677L19.6777 20.8851ZM3.11621 21.1338L-5.88181 9.13232L-42.8186 36.8254L3.34147 36.1321L3.11621 21.1338ZM16.3686 11.198L7.42232 -0.842163L7.39638 -0.822894L7.37053 -0.803513L16.3686 11.198ZM20.4528 8.16327L29.399 20.2034L29.4506 20.1651L29.5018 20.1263L20.4528 8.16327ZM24.5589 5.05729L33.0008 -7.34171L24.0989 -13.4026L15.5099 -6.90578L24.5589 5.05729ZM29.2523 8.25273L38.1216 -3.84419L37.9105 -3.99895L37.6941 -4.14626L29.2523 8.25273ZM32.9301 10.9492L24.0608 23.0462L24.1778 23.132L24.2965 23.2155L32.9301 10.9492ZM46.2495 5.48431L29.688 5.73304L30.1385 35.7297L46.7 35.4809L46.2495 5.48431ZM15.5794 16.3108L10.6982 32.1386L39.3659 40.9796L44.2471 25.1519L15.5794 16.3108ZM39.2267 31.7102L33.8723 16.0361L5.48308 25.734L10.8374 41.4081L39.2267 31.7102ZM19.4525 5.88677L2.89096 6.1355L3.34147 36.1321L19.903 35.8834L19.4525 5.88677ZM12.1142 33.1353L25.3666 23.1995L7.37053 -0.803513L-5.88181 9.13232L12.1142 33.1353ZM25.3148 23.2381L29.399 20.2034L11.5065 -3.87687L7.42232 -0.842163L25.3148 23.2381ZM29.5018 20.1263L33.608 17.0204L15.5099 -6.90578L11.4037 -3.7998L29.5018 20.1263ZM16.1171 17.4563L20.8104 20.6517L37.6941 -4.14626L33.0008 -7.34171L16.1171 17.4563ZM20.383 20.3497L24.0608 23.0462L41.7994 -1.14768L38.1216 -3.84419L20.383 20.3497ZM24.2965 23.2155L37.8412 32.7489L55.1083 8.21633L41.5636 -1.31705L24.2965 23.2155Z" fill="white" mask="url(#path-2-inside-1)"/>
</svg>
