<svg width="37" height="80" viewBox="0 0 37 80" fill="none" xmlns="http://www.w3.org/2000/svg">
<path d="M35.384 31.7498C31.1764 13.1957 21.2352 7.11194 20.167 4.78049C18.9938 3.12695 17.7305 0 17.7305 0C17.718 0.0650406 17.718 0.105066 17.7055 0.170106V0.210131C17.7055 0.262664 17.693 0.28768 17.693 0.340213V0.392745H17.6805V0.56035H17.6679C17.6679 0.585366 17.6679 0.625391 17.6554 0.637899V0.715447C17.6554 0.740463 17.6554 0.76798 17.6429 0.780488V0.845528C17.6429 0.885553 17.6429 0.923077 17.6304 0.950594V0.963102C17.6282 1.02054 17.6198 1.07757 17.6054 1.13321V1.15822C17.5929 1.17073 17.5929 1.18324 17.5929 1.19825V1.25078H17.5804V1.32833H17.5679V1.38086H17.5429V1.45841H17.5304V1.52345H17.5178V1.57598H17.5053V1.62852H17.4928V1.68105H17.4803V1.73358H17.4678V1.77361H17.4553V1.82614H17.4428V1.87867H17.4303C17.4178 1.87867 17.4178 1.89118 17.4178 1.89118V1.9162L17.4053 1.94121C17.4053 1.96623 17.3928 1.99375 17.3803 2.01876C17.3678 2.03127 17.3678 2.03127 17.3678 2.04378V2.06879H17.3552V2.09381H17.3302V2.15885H17.3052V2.19887H17.2927V2.21138H17.2802V2.2364H17.2677V2.27642H17.2552V2.30144H17.2302V2.34146H17.2177V2.36648H17.2052V2.39149H17.1926V2.43152H17.1801V2.45654H17.1676V2.46904H17.1551V2.49406H17.1301V2.53408H17.1176V2.54659H17.1051V2.57161H17.0926V2.61163H17.0801V2.62414H17.0676V2.64916H17.0551V2.66166H17.0426V2.70169H17.0175V2.7142H17.005V2.73921H16.9925V2.75172H16.98V2.77674H16.9675V2.80175C16.955 2.80175 16.955 2.81426 16.955 2.81426V2.82677H16.9425L16.9025 2.89181C16.9025 2.89181 16.8774 2.91682 16.8774 2.93183C16.8649 2.93183 16.8649 2.94434 16.8649 2.94434V2.95685H16.8524V2.96936H16.8399V2.99437H16.8149V3.00688H16.8024V3.01939H16.7899V3.05691H16.7774V3.06942H16.7649V3.08193H16.7524V3.10694H16.7399V3.08193H16.7148V3.09443H16.7023V3.11945H16.6898V3.14446H16.6773V3.15697H16.6648V3.16948H16.6523V3.18199H16.6398V3.207H16.6148V3.21951H16.6023V3.24453H16.5898V3.25704H16.5773V3.26954H16.5648V3.30957H16.5522V3.32208H16.5397V3.33458H16.5272V3.34709H16.5147V3.3596H16.4897V3.38461H16.4772V3.39712H16.4647V3.40963H16.4522V3.43465H16.4397V3.44715H16.4147V3.45966H16.4021V3.47217H16.3896V3.49719H16.3771V3.5222H16.3646V3.53471H16.3521V3.54722H16.3271V3.55972H16.3146V3.57223H16.3021V3.59725H16.2896V3.60976H16.2771V3.63477H16.2646V3.64728H16.2521V3.65979H16.2395V3.67229H16.227V3.6848H16.202V3.69731C16.1895 3.69731 16.1895 3.70982 16.1895 3.70982L16.177 3.72233L16.1645 3.73483V3.75985H16.152V3.77236H16.1395V3.78487H16.127V3.79737H16.1145L16.0895 3.82239V3.8349C16.0644 3.8474 16.0644 3.85991 16.0369 3.88743C16.0369 3.88743 16.0119 3.91245 15.9969 3.91245C15.9569 3.93746 15.9068 3.98999 15.8668 4.03002C15.8418 4.04253 15.8143 4.07004 15.7893 4.08255C15.7367 4.13508 15.6842 4.17261 15.6317 4.21263C15.5541 4.29018 15.4741 4.34271 15.384 4.42026H15.3715L14.7586 4.9556H14.7461C14.1858 5.45091 13.5204 6.08881 12.7649 6.84428L12.6998 6.90932C8.1645 11.5997 1.01253 21.3834 0.26957 37.1882C0.192022 38.4916 0.204527 39.7674 0.282076 41.0056V41.0306C0.647304 47.2595 2.60103 52.5754 5.05006 56.9006C6.01316 58.6216 7.06882 60.1851 8.13699 61.591C11.8118 66.439 15.5641 69.3183 16.5147 70.0213C17.9881 73.4209 17.8556 79.2845 17.8556 79.2845L20.0044 80C20.0044 80 19.5616 74.3315 20.1745 71.5822C20.3696 70.7342 20.8124 70.0062 21.3352 69.3809C21.7005 69.1332 22.7436 68.3777 23.9944 67.232C24.0594 67.167 24.0995 67.1144 24.152 67.0494C29.2202 62.3189 38.6936 50.6717 35.4491 31.7023L35.384 31.7498Z" fill="white" fill-opacity="0.15"/>
</svg>
