<svg width="18" height="18" viewBox="0 0 18 18" fill="none" xmlns="http://www.w3.org/2000/svg">
<path d="M17.1785 0.341615C17.1263 0.211575 17.0259 0.106672 16.8983 0.0487291C16.7708 -0.00921393 16.6257 -0.0157358 16.4935 0.0305202C16.3612 0.0767762 16.2518 0.172249 16.1882 0.297076C16.1245 0.421904 16.1114 0.566475 16.1516 0.700715C16.9877 3.10371 15.3281 4.89831 14.0627 5.85952L13.5515 5.12691C13.3796 4.88122 12.9953 4.67692 12.6965 4.67332L9.82729 4.68591C9.47679 4.6965 9.13567 4.80161 8.83999 4.99012L0.385391 10.9184C0.188736 11.0568 0.0549283 11.2675 0.0132639 11.5043C-0.0284005 11.7411 0.0254738 11.9848 0.163091 12.182L4.00519 17.6792C4.29319 18.0887 4.75309 18.0392 5.16349 17.753L13.6181 11.8238C13.8611 11.6519 14.1419 11.2811 14.2409 10.9976L15.1391 8.16712C15.2381 7.88452 15.1778 7.45342 15.0059 7.20772L14.6945 6.76132C16.3937 5.45902 18.1577 3.15771 17.1785 0.341615ZM13.2446 8.76381C13.0888 8.87284 12.9131 8.95011 12.7275 8.99121C12.5419 9.0323 12.35 9.03642 12.1627 9.00332C11.9755 8.97022 11.7967 8.90056 11.6364 8.79831C11.4761 8.69606 11.3375 8.56323 11.2286 8.40741C11.008 8.09211 10.9216 7.70216 10.9882 7.32318C11.0549 6.9442 11.2692 6.60715 11.5841 6.38601C11.831 6.21305 12.1257 6.12154 12.4271 6.12429C12.7286 6.12703 13.0216 6.22389 13.2653 6.40132C13.0205 6.54892 12.8522 6.63532 12.8207 6.64882C12.7091 6.70201 12.6189 6.79152 12.5649 6.90268C12.5109 7.01384 12.4962 7.14006 12.5233 7.26065C12.5504 7.38124 12.6176 7.48906 12.714 7.56643C12.8104 7.6438 12.9302 7.68614 13.0538 7.68651C13.1312 7.68651 13.2104 7.66851 13.2851 7.63341C13.4597 7.55061 13.6469 7.45252 13.8422 7.33641C13.8871 7.60647 13.8549 7.88372 13.7491 8.13625C13.6434 8.38878 13.4685 8.60632 13.2446 8.76381Z" fill="white"/>
</svg>
