<svg width="90" height="80" viewBox="0 0 90 80" fill="none" xmlns="http://www.w3.org/2000/svg">
<path d="M45 31.9826C40.5759 31.9826 36.9731 35.582 36.9731 40.0019C36.9731 44.4218 40.5759 48.0212 45 48.0212C49.4241 48.0212 53.0269 44.4218 53.0269 40.0019C53.0269 35.582 49.4241 31.9826 45 31.9826ZM22.5281 55.9393L20.7563 55.501C7.57125 52.1629 0 46.5151 0 39.9879C0 33.4606 7.57406 27.8128 20.7563 24.4747L22.5281 24.0364L23.0259 25.7925C24.3635 30.3923 26.0735 34.8757 28.1391 39.1983L28.5188 39.9879L28.1391 40.7915C26.0692 45.1122 24.359 49.596 23.0259 54.1972L22.5281 55.9393ZM19.9378 28.5715C9.91688 31.3813 3.76594 35.6972 3.76594 39.9879C3.76594 44.2785 9.91969 48.5775 19.9378 51.4043C21.1659 47.506 22.6484 43.6923 24.3759 39.9879C22.646 36.2844 21.1634 32.4706 19.9378 28.5715ZM67.4719 55.9393L66.9741 54.1832C65.6389 49.5872 63.9288 45.1083 61.8609 40.7915L61.4813 39.9879L61.8609 39.1842C63.9308 34.8635 65.641 30.3797 66.9741 25.7785L67.4719 24.0364L69.2438 24.4747C82.4288 27.8128 90 33.4606 90 39.9879C90 46.5151 82.4259 52.1629 69.2438 55.501L67.4719 55.9393ZM65.6241 39.9879C67.3573 43.6899 68.84 47.5039 70.0622 51.4043C80.0972 48.5804 86.2341 44.2785 86.2341 39.9879C86.2341 35.6972 80.0803 31.3982 70.0622 28.5715C68.8312 32.4687 67.3487 36.2822 65.6241 39.9879ZM19.9069 28.5574L19.4091 26.8013C15.7022 13.7468 16.83 4.38156 22.5 1.11652C28.0659 -2.0895 36.9872 1.70097 46.3472 11.3022L47.6212 12.606L46.3472 13.9097C43.0232 17.3648 39.986 21.0841 37.2656 25.0311L36.7537 25.7476L35.8734 25.8206C31.0879 26.198 26.3408 26.962 21.6788 28.105L19.9069 28.5574ZM27.0253 3.72406C26.0156 3.72406 25.1213 3.92918 24.3731 4.36751C20.6522 6.51985 19.9941 13.9828 22.5563 24.0504C26.5541 23.157 30.6062 22.5263 34.6866 22.1622C37.0357 18.8196 39.6045 15.6365 42.3759 12.6341C36.5316 6.94133 30.9938 3.72125 27.0253 3.72125V3.72406ZM62.9888 79.9972C62.9747 79.9972 62.9747 79.9972 62.9888 79.9972C57.6422 79.9972 50.7712 75.9875 43.6528 68.6707L42.3787 67.367L43.6528 66.0632C46.9768 62.6081 50.014 58.8888 52.7344 54.9418L53.2322 54.2253L54.1125 54.1382C58.9042 53.7735 63.657 53.0094 68.3213 51.8538L70.0931 51.4155L70.5909 53.1716C74.2978 66.2262 73.17 75.5773 67.5 78.8395C66.1291 79.6267 64.5696 80.0259 62.9888 79.9944V79.9972ZM47.6212 67.3389C53.4656 73.0316 59.0034 76.2517 62.9719 76.2517H62.9859C63.9816 76.2517 64.8759 76.0325 65.6241 75.6082C69.345 73.4559 70.02 65.9929 67.4409 55.9253C63.4439 56.8196 59.3914 57.4458 55.3106 57.7994C52.9616 61.1466 50.3928 64.3344 47.6212 67.3417V67.3389ZM70.0931 28.5574L68.3213 28.105C63.6536 26.9658 58.9022 26.2019 54.1125 25.8206L53.2322 25.7476L52.7344 25.0311C50.014 21.0841 46.9768 17.3648 43.6528 13.9097L42.3787 12.606L43.6528 11.3022C53.0128 1.70097 61.9341 -2.0895 67.5 1.11652C73.17 4.37875 74.2978 13.7468 70.5909 26.8013L70.0931 28.5574ZM55.3134 22.1622C59.3939 22.5253 63.4461 23.156 67.4437 24.0504C70.0228 13.9828 69.3478 6.51704 65.6269 4.36751C61.92 2.23203 54.9478 5.50831 47.6241 12.6369C50.388 15.6458 52.9564 18.8284 55.3134 22.165V22.1622ZM27.0253 79.9972C25.4419 80.0253 23.8753 79.6319 22.5 78.8423C16.83 75.5801 15.7022 66.2262 19.4091 53.1744L19.9069 51.4183L21.6788 51.8566C26.0156 52.9553 30.7913 53.7139 35.8734 54.141L36.7537 54.2281L37.2516 54.9446C39.972 58.8916 43.0092 62.611 46.3331 66.066L47.6072 67.3698L46.3331 68.6735C39.2288 75.9904 32.3578 80 27.0253 80V79.9972ZM22.5591 55.9253C19.98 65.9929 20.655 73.4587 24.3759 75.6082C28.0828 77.7156 35.0409 74.4674 42.3787 67.3389C39.6072 64.3315 37.0384 61.1438 34.6894 57.7966C30.6085 57.444 26.5559 56.8179 22.5591 55.9225V55.9253ZM45 58.2799C41.9091 58.2799 38.745 58.1479 35.5669 57.8837L34.6866 57.8107L34.1747 57.0801C32.3795 54.5032 30.6933 51.8521 29.1206 49.1339C27.5446 46.4156 26.0837 43.6323 24.7416 40.7915L24.3619 39.9879L24.7416 39.1842C27.4304 33.5038 30.5856 28.0556 34.1747 22.8956L34.6866 22.165L35.5669 22.092C41.8445 21.5637 48.1555 21.5637 54.4331 22.092L55.3134 22.165L55.8253 22.8956C59.4191 28.0527 62.5745 33.5013 65.2584 39.1842L65.6381 39.9879L65.2584 40.7915C62.5799 46.4773 59.4242 51.9263 55.8253 57.0801L55.3134 57.8107L54.4331 57.8837C51.2956 58.146 48.1485 58.2782 45 58.2799ZM36.7678 54.2113C42.3056 54.6356 47.6944 54.6356 53.2462 54.2113C56.3426 49.6816 59.0943 44.9261 61.4784 39.9851C59.1044 35.0358 56.3473 30.2793 53.2322 25.7588C47.7523 25.3345 42.2477 25.3345 36.7678 25.7588C33.6505 30.2779 30.8933 35.0346 28.5216 39.9851C30.9063 44.9286 33.663 49.6843 36.7678 54.2113Z" fill="white" fill-opacity="0.15"/>
</svg>
