<svg width="524" height="332" viewBox="0 0 524 332" fill="none" xmlns="http://www.w3.org/2000/svg">
<path opacity="0.111111" fill-rule="evenodd" clip-rule="evenodd" d="M265.571 115.612C266.039 107.035 271.63 99.6535 276.183 92.3737C280.701 85.1516 286.434 79.0009 292.32 72.8482C298.793 66.0809 304.374 57.9814 312.857 54.036C321.511 50.0104 331.544 48.7761 340.97 50.2193C350.286 51.6456 357.713 58.3558 366.31 62.22C375.121 66.1799 386.59 66.0247 392.739 73.4872C398.961 81.0382 399.991 92.1838 399.037 101.938C398.128 111.236 387.509 117.865 387.487 127.206C387.466 136.39 397.912 142.864 398.922 151.991C399.993 161.672 400.889 174.251 393.376 180.434C385.271 187.104 371.946 178.166 362.252 182.167C353.565 185.753 351.5 201.828 342.113 201.594C331.99 201.342 328.247 186.99 319.995 181.114C314.416 177.142 308.09 174.404 301.473 172.657C291.459 170.013 277.713 176.075 270.994 168.178C264.815 160.916 274.572 149.386 273.592 139.887C272.71 131.333 265.103 124.199 265.571 115.612Z" stroke="url(#paint0_linear)" stroke-opacity="0.2" stroke-width="2"/>
<path opacity="0.222222" fill-rule="evenodd" clip-rule="evenodd" d="M277.603 118.864C279.553 110.499 286.34 104.2 292.089 97.8218C297.792 91.4939 304.506 86.4322 311.371 81.395C318.921 75.8547 325.824 68.8473 334.863 66.4348C344.085 63.9733 354.18 64.4999 363.212 67.558C372.139 70.5803 378.287 78.4782 386.083 83.7767C394.072 89.2062 405.394 91.0451 410.154 99.462C414.97 107.979 414.049 119.134 411.416 128.574C408.906 137.573 397.297 142.257 395.654 151.452C394.038 160.494 403.201 168.683 402.61 177.847C401.984 187.567 400.683 200.11 392.21 204.895C383.07 210.056 371.499 198.94 361.258 201.197C352.081 203.219 347.255 218.692 338.051 216.831C328.126 214.825 326.932 200.042 319.825 192.822C315.021 187.942 309.267 184.146 303.053 181.277C293.65 176.934 279.061 180.517 273.815 171.573C268.991 163.348 280.602 153.688 281.287 144.163C281.903 135.586 275.651 127.24 277.603 118.864Z" stroke="url(#paint1_linear)" stroke-opacity="0.2" stroke-width="2"/>
<path opacity="0.333333" fill-rule="evenodd" clip-rule="evenodd" d="M288.887 124.156C292.26 116.257 300.038 111.233 306.807 105.949C313.522 100.708 321.014 96.8889 328.649 93.1203C337.046 88.9751 345.061 83.2729 354.381 82.4666C363.891 81.6438 373.741 83.9155 382.105 88.4955C390.371 93.022 395.055 101.868 401.812 108.439C408.737 115.174 419.568 118.951 422.793 128.066C426.057 137.29 423.213 148.115 418.981 156.955C414.947 165.381 402.701 167.978 399.486 176.749C396.324 185.372 403.926 195.028 401.753 203.95C399.448 213.414 395.989 225.541 386.814 228.781C376.917 232.276 367.452 219.32 356.974 219.765C347.585 220.163 340.146 234.562 331.405 231.132C321.979 227.433 323.371 212.667 317.626 204.323C313.742 198.682 308.734 193.945 303.113 190.04C294.607 184.131 279.617 185.126 276.004 175.407C272.682 166.469 285.794 158.972 288.122 149.711C290.218 141.371 285.51 132.066 288.887 124.156Z" stroke="url(#paint2_linear)" stroke-opacity="0.2" stroke-width="2"/>
<path opacity="0.444444" fill-rule="evenodd" clip-rule="evenodd" d="M299.081 131.328C303.775 124.134 312.307 120.537 319.89 116.509C327.414 112.513 335.454 110.053 343.628 107.668C352.618 105.044 361.501 100.82 370.819 101.644C380.327 102.485 389.633 106.433 397.075 112.396C404.43 118.289 407.506 127.813 413.02 135.459C418.67 143.293 428.68 148.893 430.274 158.431C431.887 168.081 427.206 178.248 421.503 186.219C416.067 193.816 403.556 194.247 398.867 202.326C394.256 210.27 400.066 221.099 396.376 229.508C392.463 238.428 386.95 249.77 377.352 251.368C366.998 253.091 359.927 238.688 349.531 237.307C340.216 236.069 330.389 248.957 322.377 244.061C313.736 238.781 317.671 224.481 313.462 215.266C310.617 209.037 306.508 203.503 301.65 198.681C294.3 191.384 279.364 189.761 277.494 179.562C275.774 170.184 289.989 165.077 293.89 156.361C297.402 148.512 294.382 138.531 299.081 131.328Z" stroke="url(#paint3_linear)" stroke-opacity="0.2" stroke-width="2"/>
<path opacity="0.555556" fill-rule="evenodd" clip-rule="evenodd" d="M307.875 140.16C313.746 133.89 322.774 131.83 330.941 129.18C339.044 126.551 347.39 125.525 355.853 124.595C365.162 123.572 374.644 120.955 383.678 123.385C392.895 125.864 401.374 131.368 407.667 138.532C413.887 145.613 415.263 155.527 419.365 164.014C423.569 172.71 432.455 179.964 432.368 189.633C432.281 199.417 425.905 208.617 418.905 215.476C412.232 222.014 399.836 220.266 393.815 227.408C387.895 234.43 391.737 246.103 386.643 253.744C381.24 261.849 373.842 272.061 364.112 271.968C353.616 271.868 349.153 256.456 339.155 253.29C330.197 250.453 318.281 261.439 311.241 255.226C303.648 248.526 310.006 235.127 307.461 225.321C305.741 218.692 302.655 212.528 298.709 206.936C292.737 198.474 278.311 194.282 278.24 183.913C278.175 174.379 293.06 171.818 298.415 163.912C303.238 156.792 301.996 146.438 307.875 140.16Z" stroke="url(#paint4_linear)" stroke-opacity="0.2" stroke-width="2"/>
<path opacity="0.666667" fill-rule="evenodd" clip-rule="evenodd" d="M315.001 150.386C321.872 145.231 331.12 144.769 339.624 143.577C348.06 142.396 356.457 142.834 364.954 143.388C374.299 143.997 384.091 143.066 392.565 147.028C401.212 151.07 408.607 157.963 413.56 166.111C418.456 174.164 418.089 184.167 420.655 193.237C423.285 202.531 430.776 211.217 429.012 220.725C427.227 230.344 419.351 238.298 411.266 243.837C403.56 249.117 391.655 245.243 384.486 251.231C377.436 257.119 379.192 269.281 372.849 275.922C366.121 282.965 357.062 291.738 347.496 289.957C337.177 288.035 335.458 272.082 326.162 267.228C317.832 262.879 304.19 271.629 298.335 264.288C292.021 256.371 300.609 244.279 299.806 234.181C299.263 227.354 297.294 220.748 294.379 214.555C289.967 205.185 276.488 198.552 278.219 188.328C279.81 178.927 294.914 178.99 301.561 172.133C307.546 165.959 308.122 155.547 315.001 150.386Z" stroke="url(#paint5_linear)" stroke-opacity="0.2" stroke-width="2"/>
<path opacity="0.777778" fill-rule="evenodd" clip-rule="evenodd" d="M320.244 161.693C327.905 157.81 337.093 158.96 345.674 159.264C354.188 159.565 362.381 161.455 370.652 163.476C379.75 165.699 389.555 166.482 397.213 171.855C405.026 177.338 411.112 185.409 414.575 194.294C417.997 203.075 415.9 212.862 416.852 222.24C417.828 231.85 423.697 241.705 420.308 250.761C416.88 259.925 407.743 266.39 398.819 270.441C390.312 274.303 379.262 268.42 371.161 273.072C363.196 277.646 362.813 289.929 355.413 295.367C347.565 301.135 337.119 308.202 328.008 304.786C318.18 301.102 319.257 285.093 310.945 278.698C303.497 272.969 288.543 279.217 284.052 270.971C279.209 262.078 289.766 251.661 290.728 241.576C291.379 234.759 290.588 227.911 288.792 221.307C286.074 211.313 273.951 202.44 277.431 192.672C280.631 183.69 295.495 186.375 303.231 180.777C310.198 175.736 312.572 165.581 320.244 161.693Z" stroke="url(#paint6_linear)" stroke-opacity="0.2" stroke-width="2"/>
<path opacity="0.888889" fill-rule="evenodd" clip-rule="evenodd" d="M323.443 173.739C331.663 171.245 340.511 173.974 348.909 175.763C357.241 177.538 364.981 180.822 372.776 184.248C381.349 188.017 390.869 190.491 397.478 197.112C404.221 203.868 408.812 212.874 410.68 222.225C412.526 231.467 408.76 240.741 408.07 250.142C407.362 259.775 411.43 270.5 406.521 278.83C401.553 287.259 391.432 292.039 381.94 294.479C372.892 296.805 363.031 289.093 354.246 292.268C345.608 295.389 343.098 307.419 334.866 311.49C326.135 315.807 314.621 320.952 306.242 316.007C297.202 310.672 301.043 295.093 293.968 287.352C287.628 280.416 271.816 283.973 268.825 275.072C265.6 265.473 277.805 257.048 280.505 247.284C282.329 240.683 282.739 233.802 282.117 226.986C281.177 216.671 270.778 205.828 275.902 196.813C280.613 188.523 294.784 193.748 303.375 189.579C311.111 185.824 315.213 176.236 323.443 173.739Z" stroke="url(#paint7_linear)" stroke-opacity="0.2" stroke-width="2"/>
<path fill-rule="evenodd" clip-rule="evenodd" d="M324.502 186.158C333.03 185.129 341.27 189.353 349.23 192.573C357.126 195.768 364.179 200.346 371.261 205.074C379.049 210.274 387.995 214.364 393.353 222.032C398.82 229.856 401.778 239.522 401.994 249.056C402.207 258.478 396.888 266.957 394.576 276.095C392.206 285.459 394.35 296.727 388.069 304.079C381.713 311.517 370.916 314.467 361.144 315.221C351.83 315.941 343.458 306.634 334.254 308.235C325.206 309.809 320.645 321.22 311.831 323.799C302.483 326.535 290.251 329.602 282.857 323.277C274.882 316.453 281.37 301.778 275.746 292.926C270.707 284.995 254.517 285.752 253.117 276.467C251.608 266.454 265.091 260.276 269.445 251.129C272.388 244.945 273.986 238.24 274.558 231.419C275.422 221.098 267.065 208.614 273.676 200.626C279.755 193.28 292.804 200.886 301.988 198.272C310.259 195.917 315.963 187.188 324.502 186.158Z" stroke="url(#paint8_linear)" stroke-opacity="0.2" stroke-width="2"/>
<path d="M414.365 162.354C376.804 162.354 346.245 192.913 346.245 230.474C346.245 268.036 376.804 298.594 414.365 298.594C451.927 298.594 482.485 268.036 482.485 230.474C482.485 192.913 451.927 162.354 414.365 162.354ZM414.365 284.97C384.318 284.97 359.869 260.522 359.869 230.474C359.869 222.518 361.627 214.977 364.699 208.158C365.748 208.771 366.797 209.398 367.805 210.038C370.503 211.741 373.194 213.444 376.566 214.725C379.931 215.999 383.977 216.85 389.365 216.85C394.76 216.85 398.807 215.999 402.179 214.718C405.551 213.438 408.248 211.741 410.946 210.038C413.643 208.335 416.341 206.632 419.713 205.352C423.078 204.078 427.124 203.226 432.519 203.226C437.914 203.226 441.961 204.078 445.326 205.359C448.698 206.632 451.395 208.335 454.093 210.038C456.79 211.741 459.488 213.444 462.86 214.725C464.072 215.181 465.407 215.556 466.818 215.89C468.119 220.536 468.861 225.413 468.861 230.474C468.861 260.522 444.413 284.97 414.365 284.97V284.97Z" fill="url(#paint9_linear)"/>
<path d="M390.523 244.099C396.166 244.099 400.741 239.524 400.741 233.881C400.741 228.237 396.166 223.663 390.523 223.663C384.88 223.663 380.305 228.237 380.305 233.881C380.305 239.524 384.88 244.099 390.523 244.099Z" fill="url(#paint10_linear)"/>
<path d="M438.207 244.099C443.85 244.099 448.425 239.524 448.425 233.881C448.425 228.237 443.85 223.663 438.207 223.663C432.564 223.663 427.989 228.237 427.989 233.881C427.989 239.524 432.564 244.099 438.207 244.099Z" fill="url(#paint11_linear)"/>
<rect x="271" y="179.456" width="47.1994" height="19.8374" fill="url(#paint12_linear)"/>
<rect x="304.518" y="165.774" width="47.1994" height="19.8374" transform="rotate(90 304.518 165.774)" fill="url(#paint13_linear)"/>
<rect x="478.267" y="109" width="47.1994" height="19.8374" transform="rotate(90 478.267 109)" fill="url(#paint14_linear)"/>
<rect x="491.948" y="142.519" width="47.1994" height="19.8374" transform="rotate(-180 491.948 142.519)" fill="url(#paint15_linear)"/>
<rect x="509.733" y="284.8" width="47.1994" height="19.8374" transform="rotate(90 509.733 284.8)" fill="url(#paint16_linear)"/>
<rect x="523.414" y="318.319" width="47.1994" height="19.8374" transform="rotate(-180 523.414 318.319)" fill="url(#paint17_linear)"/>
<path d="M198.224 73.7705C146.29 73.7705 104.038 116.022 104.038 167.956C104.038 219.89 146.29 262.142 198.224 262.142C250.158 262.142 292.41 219.89 292.41 167.956C292.41 116.022 250.158 73.7705 198.224 73.7705ZM198.224 243.305C156.678 243.305 122.875 209.502 122.875 167.956C122.875 156.955 125.305 146.529 129.553 137.101C131.003 137.949 132.454 138.815 133.848 139.701C137.577 142.055 141.298 144.41 145.96 146.181C150.613 147.942 156.207 149.119 163.657 149.119C171.117 149.119 176.712 147.942 181.374 146.171C186.036 144.4 189.766 142.055 193.496 139.701C197.225 137.346 200.955 134.991 205.617 133.221C210.27 131.459 215.865 130.282 223.324 130.282C230.784 130.282 236.378 131.459 241.031 133.23C245.693 134.991 249.423 137.346 253.153 139.701C256.883 142.055 260.612 144.41 265.275 146.181C266.951 146.812 268.797 147.33 270.747 147.791C272.546 154.215 273.572 160.958 273.572 167.956C273.572 209.502 239.769 243.305 198.224 243.305V243.305Z" fill="url(#paint18_linear)"/>
<path d="M165.258 186.794C173.061 186.794 179.386 180.469 179.386 172.666C179.386 164.863 173.061 158.538 165.258 158.538C157.456 158.538 151.131 164.863 151.131 172.666C151.131 180.469 157.456 186.794 165.258 186.794Z" fill="url(#paint19_linear)"/>
<path d="M231.189 186.794C238.992 186.794 245.317 180.469 245.317 172.666C245.317 164.863 238.992 158.538 231.189 158.538C223.386 158.538 217.061 164.863 217.061 172.666C217.061 180.469 223.386 186.794 231.189 186.794Z" fill="url(#paint20_linear)"/>
<rect y="97.4155" width="65.2602" height="27.4282" fill="url(#paint21_linear)"/>
<rect x="46.344" y="78.499" width="65.2602" height="27.4282" transform="rotate(90 46.344 78.499)" fill="url(#paint22_linear)"/>
<rect x="286.577" width="65.2602" height="27.4282" transform="rotate(90 286.577 0)" fill="url(#paint23_linear)"/>
<rect x="305.493" y="46.3442" width="65.2602" height="27.4282" transform="rotate(-180 305.493 46.3442)" fill="url(#paint24_linear)"/>
<rect x="330.084" y="243.07" width="65.2602" height="27.4282" transform="rotate(90 330.084 243.07)" fill="url(#paint25_linear)"/>
<rect x="349" y="289.415" width="65.2602" height="27.4282" transform="rotate(-180 349 289.415)" fill="url(#paint26_linear)"/>
<defs>
<linearGradient id="paint0_linear" x1="265.937" y1="112.632" x2="404.795" y2="137.116" gradientUnits="userSpaceOnUse">
<stop stop-color="#FF2EB8"/>
<stop offset="1" stop-color="#FF2EB8" stop-opacity="0"/>
</linearGradient>
<linearGradient id="paint1_linear" x1="278.481" y1="115.993" x2="410.977" y2="164.218" gradientUnits="userSpaceOnUse">
<stop stop-color="#FF2EB8"/>
<stop offset="1" stop-color="#FF2EB8" stop-opacity="0"/>
</linearGradient>
<linearGradient id="paint2_linear" x1="290.25" y1="121.481" x2="412.36" y2="191.981" gradientUnits="userSpaceOnUse">
<stop stop-color="#FF2EB8"/>
<stop offset="1" stop-color="#FF2EB8" stop-opacity="0"/>
</linearGradient>
<linearGradient id="paint3_linear" x1="300.888" y1="128.93" x2="408.9" y2="219.563" gradientUnits="userSpaceOnUse">
<stop stop-color="#FF2EB8"/>
<stop offset="1" stop-color="#FF2EB8" stop-opacity="0"/>
</linearGradient>
<linearGradient id="paint4_linear" x1="310.07" y1="138.112" x2="400.703" y2="246.125" gradientUnits="userSpaceOnUse">
<stop stop-color="#FF2EB8"/>
<stop offset="1" stop-color="#FF2EB8" stop-opacity="0"/>
</linearGradient>
<linearGradient id="paint5_linear" x1="317.519" y1="148.75" x2="388.019" y2="270.86" gradientUnits="userSpaceOnUse">
<stop stop-color="#FF2EB8"/>
<stop offset="1" stop-color="#FF2EB8" stop-opacity="0"/>
</linearGradient>
<linearGradient id="paint6_linear" x1="323.007" y1="160.519" x2="371.232" y2="293.016" gradientUnits="userSpaceOnUse">
<stop stop-color="#FF2EB8"/>
<stop offset="1" stop-color="#FF2EB8" stop-opacity="0"/>
</linearGradient>
<linearGradient id="paint7_linear" x1="326.368" y1="173.063" x2="350.853" y2="311.921" gradientUnits="userSpaceOnUse">
<stop stop-color="#FF2EB8"/>
<stop offset="1" stop-color="#FF2EB8" stop-opacity="0"/>
</linearGradient>
<linearGradient id="paint8_linear" x1="327.5" y1="186" x2="327.5" y2="327" gradientUnits="userSpaceOnUse">
<stop stop-color="#FF2EB8"/>
<stop offset="1" stop-color="#FF2EB8" stop-opacity="0"/>
</linearGradient>
<linearGradient id="paint9_linear" x1="200.543" y1="71.718" x2="547.014" y2="350.468" gradientUnits="userSpaceOnUse">
<stop stop-color="#FF2EB8" stop-opacity="0.69"/>
<stop offset="1" stop-color="#424CFF"/>
</linearGradient>
<linearGradient id="paint10_linear" x1="403.363" y1="245.809" x2="377.028" y2="221.525" gradientUnits="userSpaceOnUse">
<stop stop-color="#424CFF"/>
<stop offset="1" stop-color="#AD00FF"/>
</linearGradient>
<linearGradient id="paint11_linear" x1="428.331" y1="217.421" x2="448.169" y2="247.861" gradientUnits="userSpaceOnUse">
<stop stop-color="#424CFF"/>
<stop offset="1" stop-color="#AD00FF"/>
</linearGradient>
<linearGradient id="paint12_linear" x1="265.87" y1="179.456" x2="327.776" y2="203.397" gradientUnits="userSpaceOnUse">
<stop stop-color="#AD00FF"/>
<stop offset="1" stop-color="#424CFF"/>
</linearGradient>
<linearGradient id="paint13_linear" x1="299.046" y1="190.742" x2="358.558" y2="160.644" gradientUnits="userSpaceOnUse">
<stop stop-color="#C850C0"/>
<stop offset="1" stop-color="#424CFF"/>
</linearGradient>
<linearGradient id="paint14_linear" x1="473.137" y1="109" x2="535.043" y2="132.942" gradientUnits="userSpaceOnUse">
<stop stop-color="#AD00FF"/>
<stop offset="1" stop-color="#424CFF"/>
</linearGradient>
<linearGradient id="paint15_linear" x1="486.476" y1="167.486" x2="545.988" y2="137.388" gradientUnits="userSpaceOnUse">
<stop stop-color="#C850C0"/>
<stop offset="1" stop-color="#424CFF"/>
</linearGradient>
<linearGradient id="paint16_linear" x1="504.603" y1="284.8" x2="566.509" y2="308.742" gradientUnits="userSpaceOnUse">
<stop stop-color="#AD00FF"/>
<stop offset="1" stop-color="#424CFF"/>
</linearGradient>
<linearGradient id="paint17_linear" x1="517.942" y1="343.287" x2="577.454" y2="313.188" gradientUnits="userSpaceOnUse">
<stop stop-color="#C850C0"/>
<stop offset="1" stop-color="#424CFF"/>
</linearGradient>
<linearGradient id="paint18_linear" x1="-97.4174" y1="-51.5479" x2="381.63" y2="333.865" gradientUnits="userSpaceOnUse">
<stop stop-color="#FF2EB8" stop-opacity="0.69"/>
<stop offset="1" stop-color="#424CFF"/>
</linearGradient>
<linearGradient id="paint19_linear" x1="183.012" y1="189.158" x2="146.599" y2="155.582" gradientUnits="userSpaceOnUse">
<stop stop-color="#424CFF"/>
<stop offset="1" stop-color="#AD00FF"/>
</linearGradient>
<linearGradient id="paint20_linear" x1="217.534" y1="149.908" x2="244.962" y2="191.996" gradientUnits="userSpaceOnUse">
<stop stop-color="#424CFF"/>
<stop offset="1" stop-color="#AD00FF"/>
</linearGradient>
<linearGradient id="paint21_linear" x1="-7.09349" y1="97.4155" x2="78.5013" y2="130.519" gradientUnits="userSpaceOnUse">
<stop stop-color="#AD00FF"/>
<stop offset="1" stop-color="#424CFF"/>
</linearGradient>
<linearGradient id="paint22_linear" x1="38.7776" y1="113.021" x2="121.062" y2="71.4055" gradientUnits="userSpaceOnUse">
<stop stop-color="#C850C0"/>
<stop offset="1" stop-color="#424CFF"/>
</linearGradient>
<linearGradient id="paint23_linear" x1="279.484" y1="-2.50531e-06" x2="365.079" y2="33.103" gradientUnits="userSpaceOnUse">
<stop stop-color="#AD00FF"/>
<stop offset="1" stop-color="#424CFF"/>
</linearGradient>
<linearGradient id="paint24_linear" x1="297.927" y1="80.8659" x2="380.212" y2="39.2507" gradientUnits="userSpaceOnUse">
<stop stop-color="#C850C0"/>
<stop offset="1" stop-color="#424CFF"/>
</linearGradient>
<linearGradient id="paint25_linear" x1="322.99" y1="243.07" x2="408.585" y2="276.173" gradientUnits="userSpaceOnUse">
<stop stop-color="#AD00FF"/>
<stop offset="1" stop-color="#424CFF"/>
</linearGradient>
<linearGradient id="paint26_linear" x1="341.433" y1="323.936" x2="423.718" y2="282.321" gradientUnits="userSpaceOnUse">
<stop stop-color="#C850C0"/>
<stop offset="1" stop-color="#424CFF"/>
</linearGradient>
</defs>
</svg>
