<svg width="90" height="80" viewBox="0 0 90 80" fill="none" xmlns="http://www.w3.org/2000/svg">
<path d="M82.3343 56.2799C82.5394 55.853 82.5394 55.4457 82.7613 55.0216C87.7918 35.2701 75.8264 12.1705 55.2435 0C64.2681 12.1705 67.8381 26.6695 64.6923 39.6911C64.4433 40.8413 64.0908 41.9666 63.639 43.0533C63.0616 42.7293 62.5002 42.3778 61.9565 42C61.9565 42 41.5899 29.4053 19.7487 7.3422C19.1195 6.71303 31.5119 24.9843 45.3649 39.4833C38.8569 35.697 20.3778 22.4704 8.81963 11.7633C10.078 14.058 11.9795 16.3697 13.867 18.6841C23.5209 31.0737 36.1324 46.1991 51.2465 57.7405C40.5366 64.2653 25.6303 64.6754 10.5049 57.7405C6.72988 56.0749 3.56998 53.9655 0 51.4516C6.30576 61.3245 16.1787 70.3492 27.9419 75.1803C42.0168 81.2782 56.2912 80.8541 66.577 75.1803H66.7989C67.2062 74.9753 67.6331 74.7534 68.0572 74.3461C73.0906 71.8154 82.9635 69.0965 88.4182 79.5958C89.8984 82.5366 92.6174 68.8886 82.3315 56.2799H82.3343Z" fill="white" fill-opacity="0.15"/>
</svg>
